<?xml version="1.0" encoding="utf-8"?>
<!-- Generator: Adobe Illustrator 21.1.0, SVG Export Plug-In . SVG Version: 6.00 Build 0)  -->
<svg version="1.1" id="Calque_1" xmlns="http://www.w3.org/2000/svg" xmlns:xlink="http://www.w3.org/1999/xlink" x="0px" y="0px"
	 viewBox="0 0 50 50" style="enable-background:new 0 0 50 50;" xml:space="preserve">
<style type="text/css">
	.st0{fill:url(#SVGID_1_);}
</style>
<g>
	<g>
		<linearGradient id="SVGID_1_" gradientUnits="userSpaceOnUse" x1="5.1981" y1="46.964" x2="47.8061" y2="4.3561">
			<stop  offset="0" style="stop-color:#5A1266"/>
			<stop  offset="1" style="stop-color:#662D91"/>
		</linearGradient>
		<path class="st0" d="M26.4,3C31.6,3,43,4.8,43,11.5v5.8h-7.1V14c0-3.2-5.6-4.3-9.1-4.3c-8.2,0-14.2,5.8-14.2,14.7
			c0,9.6,6.2,15.8,14.6,15.8c2.6,0,9.2-0.8,9.2-4.2v-3.3h7.1v5.8c0,6.4-11,8.4-16.8,8.4C13.8,47,4.5,37.2,4.5,24.8
			C4.5,12.2,14,3,26.4,3z"/>
	</g>
</g>
</svg>
